<svg width="18" height="18" viewBox="0 0 18 18" fill="none" xmlns="http://www.w3.org/2000/svg">
<path d="M5.24616 5.25482C4.95326 5.54772 4.95326 6.02259 5.24616 6.31549L7.93502 9.00433L5.24616 11.6932C4.95326 11.9861 4.95326 12.461 5.24616 12.7539C5.53905 13.0468 6.01393 13.0468 6.30682 12.7539L8.99567 10.065L11.6846 12.7539C11.9774 13.0468 12.4523 13.0468 12.7452 12.7539C13.0381 12.461 13.0381 11.9861 12.7452 11.6932L10.0563 9.00433L12.7452 6.3155C13.0381 6.02261 13.0381 5.54773 12.7452 5.25484C12.4523 4.96194 11.9774 4.96194 11.6846 5.25484L8.99567 7.94368L6.30682 5.25482C6.01393 4.96193 5.53905 4.96193 5.24616 5.25482Z" fill="black"/>
</svg>
