<svg width="32" height="32" viewBox="0 0 32 32" fill="none" xmlns="http://www.w3.org/2000/svg">
<path d="M29.3334 14.6667L27.6054 12.9387C27.3079 12.6388 26.954 12.4007 26.5641 12.2383C26.1741 12.0758 25.7559 11.9922 25.3334 11.9922C24.911 11.9922 24.4927 12.0758 24.1028 12.2383C23.7128 12.4007 23.3589 12.6388 23.0614 12.9387L14.6667 21.3334" stroke="#0038BC" stroke-width="2.66667" stroke-linecap="round" stroke-linejoin="round"/>
<path d="M5.33341 10.6665C4.62617 10.6665 3.94789 10.9475 3.4478 11.4476C2.9477 11.9477 2.66675 12.6259 2.66675 13.3332V26.6665C2.66675 27.3737 2.9477 28.052 3.4478 28.5521C3.94789 29.0522 4.62617 29.3332 5.33341 29.3332H18.6667C19.374 29.3332 20.0523 29.0522 20.5524 28.5521C21.0525 28.052 21.3334 27.3737 21.3334 26.6665" stroke="#0038BC" stroke-width="2.66667" stroke-linecap="round" stroke-linejoin="round"/>
<path d="M17.3333 10.6667C18.0697 10.6667 18.6667 10.0697 18.6667 9.33333C18.6667 8.59695 18.0697 8 17.3333 8C16.597 8 16 8.59695 16 9.33333C16 10.0697 16.597 10.6667 17.3333 10.6667Z" fill="#0038BC" stroke="#0038BC" stroke-width="2.66667" stroke-linecap="round" stroke-linejoin="round"/>
<path d="M26.6667 2.6665H13.3334C11.8607 2.6665 10.6667 3.86041 10.6667 5.33317V18.6665C10.6667 20.1393 11.8607 21.3332 13.3334 21.3332H26.6667C28.1395 21.3332 29.3334 20.1393 29.3334 18.6665V5.33317C29.3334 3.86041 28.1395 2.6665 26.6667 2.6665Z" stroke="#0038BC" stroke-width="2.66667" stroke-linecap="round" stroke-linejoin="round"/>
</svg>
