<svg width="23" height="23" viewBox="0 0 23 23" fill="none" xmlns="http://www.w3.org/2000/svg">
<g clip-path="url(#clip0_165_3717)">
<path d="M21.0832 10.5415L19.8412 9.29948C19.6274 9.0839 19.373 8.91279 19.0927 8.79603C18.8124 8.67926 18.5118 8.61914 18.2082 8.61914C17.9045 8.61914 17.6039 8.67926 17.3236 8.79603C17.0434 8.91279 16.789 9.0839 16.5752 9.29948L10.5415 15.3331" stroke="#0038BC" stroke-width="2" stroke-linecap="round" stroke-linejoin="round"/>
<path d="M3.83317 7.6665C3.32484 7.6665 2.83733 7.86844 2.47788 8.22788C2.11844 8.58733 1.9165 9.07484 1.9165 9.58317V19.1665C1.9165 19.6748 2.11844 20.1623 2.47788 20.5218C2.83733 20.8812 3.32484 21.0832 3.83317 21.0832H13.4165C13.9248 21.0832 14.4123 20.8812 14.7718 20.5218C15.1312 20.1623 15.3332 19.6748 15.3332 19.1665" stroke="#0038BC" stroke-width="2" stroke-linecap="round" stroke-linejoin="round"/>
<path d="M12.4583 7.66667C12.9876 7.66667 13.4167 7.23761 13.4167 6.70833C13.4167 6.17906 12.9876 5.75 12.4583 5.75C11.9291 5.75 11.5 6.17906 11.5 6.70833C11.5 7.23761 11.9291 7.66667 12.4583 7.66667Z" fill="#0038BC" stroke="#0038BC" stroke-width="2" stroke-linecap="round" stroke-linejoin="round"/>
<path d="M19.1665 1.9165H9.58317C8.52462 1.9165 7.6665 2.77462 7.6665 3.83317V13.4165C7.6665 14.4751 8.52462 15.3332 9.58317 15.3332H19.1665C20.2251 15.3332 21.0832 14.4751 21.0832 13.4165V3.83317C21.0832 2.77462 20.2251 1.9165 19.1665 1.9165Z" stroke="#0038BC" stroke-width="2" stroke-linecap="round" stroke-linejoin="round"/>
</g>
<defs>
<clipPath id="clip0_165_3717">
<rect width="23" height="23" fill="white"/>
</clipPath>
</defs>
</svg>
