<svg width="108" height="49" viewBox="0 0 108 49" fill="none" xmlns="http://www.w3.org/2000/svg">
<rect width="107.428" height="48.6967" rx="8" fill="url(#paint0_linear_8_6)"/>
<path d="M20.8642 35.3483V13.5302H25.4772V22.5323H34.8415V13.5302H39.4438V35.3483H34.8415V26.3356H25.4772V35.3483H20.8642ZM43.2471 13.5302H48.936L54.9445 28.1893H55.2002L61.2087 13.5302H66.8976V35.3483H62.4232V21.1473H62.2421L56.5958 35.2418H53.5489L47.9026 21.0941H47.7215V35.3483H43.2471V13.5302ZM82.5342 19.805C82.4489 18.9456 82.0832 18.278 81.4369 17.8022C80.7906 17.3263 79.9134 17.0884 78.8055 17.0884C78.0526 17.0884 77.417 17.1949 76.8985 17.408C76.38 17.614 75.9823 17.9016 75.7053 18.2709C75.4354 18.6402 75.3005 19.0593 75.3005 19.528C75.2863 19.9187 75.368 20.2596 75.5455 20.5508C75.7302 20.842 75.9823 21.0941 76.3019 21.3071C76.6215 21.5131 76.9908 21.6942 77.4099 21.8505C77.8289 21.9996 78.2764 22.1275 78.7522 22.234L80.7124 22.7027C81.6641 22.9158 82.5377 23.1999 83.3332 23.555C84.1286 23.9101 84.8175 24.3469 85.3999 24.8654C85.9823 25.3839 86.4333 25.9946 86.7529 26.6978C87.0796 27.4009 87.2465 28.207 87.2536 29.1161C87.2465 30.4513 86.9056 31.609 86.2309 32.5891C85.5633 33.5621 84.5974 34.3185 83.3332 34.8583C82.0761 35.391 80.5597 35.6573 78.7842 35.6573C77.0228 35.6573 75.4887 35.3874 74.1819 34.8476C72.8822 34.3079 71.8666 33.5089 71.135 32.4506C70.4106 31.3853 70.0306 30.0678 69.9951 28.4982H74.4589C74.5086 29.2297 74.7181 29.8405 75.0874 30.3306C75.4639 30.8135 75.9646 31.1793 76.5896 31.4279C77.2217 31.6694 77.9354 31.7901 78.7309 31.7901C79.5121 31.7901 80.1904 31.6765 80.7657 31.4492C81.3481 31.2219 81.7991 30.9059 82.1187 30.501C82.4383 30.0962 82.5981 29.631 82.5981 29.1054C82.5981 28.6154 82.4525 28.2035 82.1613 27.8696C81.8772 27.5358 81.4582 27.2518 80.9042 27.0174C80.3573 26.783 79.6862 26.5699 78.8907 26.3782L76.515 25.7816C74.6755 25.3341 73.2231 24.6346 72.1577 23.6829C71.0924 22.7312 70.5633 21.4492 70.5704 19.837C70.5633 18.516 70.9148 17.3618 71.6251 16.3746C72.3424 15.3874 73.3261 14.6168 74.5761 14.0628C75.8261 13.5089 77.2465 13.2319 78.8374 13.2319C80.4568 13.2319 81.8701 13.5089 83.0775 14.0628C84.292 14.6168 85.2366 15.3874 85.9113 16.3746C86.586 17.3618 86.934 18.5053 86.9553 19.805H82.5342Z" fill="white"/>
<defs>
<linearGradient id="paint0_linear_8_6" x1="27.2158" y1="1.78022" x2="78.1269" y2="48.6967" gradientUnits="userSpaceOnUse">
<stop stop-color="#F22326"/>
<stop offset="1" stop-color="#0038BC"/>
</linearGradient>
</defs>
</svg>
