<svg width="12" height="12" viewBox="0 0 12 12" fill="none" xmlns="http://www.w3.org/2000/svg">
<path d="M6 1.125C3.312 1.125 1.125 3.312 1.125 6C1.125 8.688 3.312 10.875 6 10.875C8.688 10.875 10.875 8.688 10.875 6C10.875 3.312 8.688 1.125 6 1.125ZM6 1.875C8.28263 1.875 10.125 3.71738 10.125 6C10.125 8.28263 8.28263 10.125 6 10.125C3.71738 10.125 1.875 8.28263 1.875 6C1.875 3.71738 3.71738 1.875 6 1.875ZM5.625 3.75V5.625H3.75V6.375H5.625V8.25H6.375V6.375H8.25V5.625H6.375V3.75H5.625Z" fill="black"/>
</svg>
