<svg width="28" height="28" viewBox="0 0 28 28" fill="none" xmlns="http://www.w3.org/2000/svg">
<path d="M14 8.16667C12.7113 8.16667 11.6667 7.122 11.6667 5.83333C11.6667 4.54467 12.7113 3.5 14 3.5C15.2887 3.5 16.3334 4.54467 16.3334 5.83333C16.3334 7.122 15.2887 8.16667 14 8.16667Z" fill="white"/>
<path d="M14 24.5002C12.7113 24.5002 11.6667 23.4555 11.6667 22.1668C11.6667 20.8781 12.7113 19.8335 14 19.8335C15.2887 19.8335 16.3334 20.8781 16.3334 22.1668C16.3334 23.4555 15.2887 24.5002 14 24.5002Z" fill="white"/>
<path d="M14 16.3332C12.7113 16.3332 11.6667 15.2885 11.6667 13.9998C11.6667 12.7111 12.7113 11.6665 14 11.6665C15.2887 11.6665 16.3334 12.7111 16.3334 13.9998C16.3334 15.2885 15.2887 16.3332 14 16.3332Z" fill="white"/>
</svg>
