<svg width="215" height="244" viewBox="0 0 215 244" fill="none" xmlns="http://www.w3.org/2000/svg">
<g clip-path="url(#clip0_84_2154)">
<path d="M145.73 192.125C152.555 185.673 156.074 176.009 152.407 167.834C147.07 176.06 138.282 182.539 128.094 185.76C124.126 187.014 119.563 188.049 117.404 191.213C116.061 193.181 115.964 195.647 116.569 197.876C117.174 200.105 118.42 202.156 119.653 204.178L119.66 204.75C129.318 202.283 138.905 198.576 145.73 192.125Z" fill="#F2F2F2"/>
<path d="M152.202 167.878C151.052 174.997 147.286 181.842 141.529 187.002C140.279 188.169 138.861 189.14 137.322 189.881C135.739 190.585 134.013 190.906 132.283 190.816C130.654 190.764 128.995 190.546 127.38 190.841C126.587 190.981 125.831 191.279 125.157 191.719C124.482 192.159 123.903 192.731 123.454 193.401C122.383 194.982 122.027 196.805 121.751 198.598C121.443 200.589 121.16 202.661 119.855 204.374C119.697 204.581 120.075 204.783 120.233 204.576C122.504 201.596 121.744 197.789 123.277 194.575C123.992 193.076 125.229 191.756 127.079 191.303C128.697 190.907 130.408 191.13 132.057 191.195C133.747 191.303 135.441 191.046 137.023 190.441C138.599 189.771 140.057 188.85 141.341 187.713C144.152 185.302 146.553 182.448 148.452 179.262C150.559 175.773 151.982 171.912 152.646 167.886C152.686 167.64 152.242 167.633 152.202 167.878Z" fill="white"/>
<path d="M143.501 185.41C144.673 186.14 146.043 186.484 147.419 186.396C148.795 186.308 150.11 185.791 151.18 184.918C151.383 184.742 151.08 184.459 150.877 184.635C149.882 185.45 148.658 185.931 147.376 186.011C146.095 186.091 144.821 185.765 143.733 185.08C143.504 184.932 143.273 185.263 143.501 185.41Z" fill="white"/>
<path d="M133.105 190.937C132.877 189.694 132.914 188.416 133.214 187.187C133.513 185.959 134.068 184.808 134.842 183.811C134.999 183.603 134.621 183.401 134.464 183.609C133.661 184.648 133.086 185.847 132.777 187.125C132.469 188.404 132.433 189.734 132.674 191.027C132.721 191.273 133.152 191.182 133.105 190.937Z" fill="white"/>
<path d="M149.997 175.669C149.513 175.496 149.081 175.201 148.742 174.813C148.403 174.426 148.169 173.957 148.061 173.453C148.017 173.206 147.586 173.298 147.63 173.543C147.751 174.1 148.011 174.616 148.384 175.045C148.757 175.475 149.232 175.803 149.765 175.999C149.815 176.024 149.873 176.032 149.928 176.02C149.984 176.009 150.033 175.979 150.07 175.935C150.084 175.913 150.094 175.889 150.099 175.863C150.103 175.837 150.102 175.81 150.095 175.785C150.088 175.759 150.075 175.736 150.058 175.716C150.041 175.696 150.02 175.68 149.997 175.669Z" fill="white"/>
<path d="M120.043 158.539C120.065 158.693 120.088 158.848 120.107 159.004C120.395 161.08 120.488 163.178 120.387 165.272C120.382 165.434 120.374 165.597 120.364 165.759C120.043 170.852 118.66 175.82 116.306 180.343C115.348 182.189 114.243 183.954 112.999 185.62C111.267 187.945 109.177 190.346 108.448 192.957C108.369 193.228 108.309 193.503 108.268 193.783L118.86 204.713C118.898 204.727 118.934 204.744 118.973 204.758L119.373 205.211C119.444 205.128 119.516 205.041 119.588 204.958C119.63 204.91 119.669 204.86 119.711 204.812C119.738 204.779 119.765 204.747 119.792 204.718C119.801 204.707 119.81 204.696 119.816 204.688C119.843 204.66 119.864 204.631 119.888 204.605C120.293 204.118 120.695 203.627 121.094 203.134C121.097 203.132 121.097 203.132 121.098 203.127C124.127 199.358 126.821 195.336 128.731 191.085C128.788 190.957 128.848 190.827 128.901 190.694C129.745 188.788 130.412 186.809 130.896 184.781C131.153 183.679 131.347 182.564 131.477 181.44C131.804 178.539 131.605 175.603 130.891 172.773C129.465 167.103 125.976 161.894 120.467 158.773C120.326 158.694 120.187 158.616 120.043 158.539Z" fill="#F2F2F2"/>
<path d="M119.908 158.68C123.903 164.969 125.62 172.412 124.585 179.556C124.398 181.128 123.933 182.655 123.214 184.064C122.414 185.48 121.246 186.653 119.836 187.457C118.499 188.271 117.024 188.969 115.937 190.052C115.403 190.579 115.001 191.226 114.763 191.94C114.525 192.654 114.459 193.414 114.57 194.158C114.807 195.983 115.781 197.625 116.797 199.202C117.926 200.953 119.13 202.756 119.27 204.809C119.287 205.058 119.728 205.02 119.711 204.772C119.468 201.2 116.234 198.559 115.239 195.188C114.775 193.616 114.852 191.912 116.017 190.579C117.035 189.413 118.556 188.692 119.917 187.878C121.309 187.107 122.492 186.005 123.362 184.668C124.16 183.3 124.691 181.791 124.926 180.222C125.505 176.748 125.452 173.196 124.771 169.74C123.996 165.726 122.468 161.895 120.268 158.454C120.13 158.237 119.771 158.465 119.908 158.68Z" fill="white"/>
<path d="M125.062 177.249C127.963 177.223 130.438 175.324 130.853 172.823C130.894 172.577 130.457 172.51 130.416 172.756C130.027 175.099 127.731 176.839 125.019 176.864C124.734 176.867 124.778 177.252 125.062 177.249Z" fill="white"/>
<path d="M120.576 187.123C119.573 186.32 118.742 185.321 118.135 184.186C117.528 183.051 117.157 181.804 117.044 180.52C117.026 180.272 116.585 180.309 116.603 180.558C116.723 181.893 117.112 183.19 117.747 184.37C118.381 185.55 119.248 186.588 120.294 187.421C120.502 187.593 120.783 187.293 120.576 187.123Z" fill="white"/>
<path d="M123.524 166.06C122.988 166.169 122.435 166.159 121.903 166.028C121.372 165.898 120.875 165.652 120.45 165.307C120.245 165.134 119.964 165.433 120.167 165.606C120.64 165.985 121.188 166.256 121.775 166.401C122.362 166.546 122.973 166.561 123.567 166.445C123.685 166.422 123.778 166.348 123.766 166.234C123.756 166.18 123.725 166.131 123.68 166.099C123.635 166.067 123.579 166.053 123.524 166.06Z" fill="white"/>
<path d="M95.4987 204.425C82.3154 213.476 69.2077 215.772 58.5905 210.893C44.9656 204.631 36.7122 187.39 35.9465 163.591L36.7537 163.667C37.5085 187.135 45.5667 204.099 58.8619 210.209C69.1945 214.958 82.0191 212.675 94.9732 203.782L95.4987 204.425Z" fill="#F2F2F2"/>
<path d="M176.969 51.1778C175.671 65.5405 171.972 80.6851 166.172 95.2976C158.999 113.368 149.198 129.284 137.83 141.326L137.199 140.773C148.512 128.79 158.268 112.944 165.411 94.9482C171.867 78.6859 175.707 61.7625 176.521 46.0151L177.327 46.1507C177.241 47.8138 177.122 49.4895 176.969 51.1778Z" fill="#F2F2F2"/>
<path d="M141.947 30.7656L141.163 30.8518C137.669 17.0643 130.896 7.51248 121.576 3.22877C109.728 -2.21659 95.0767 1.44007 80.322 13.5253C65.4923 25.6722 52.3642 44.8591 43.3561 67.5524L42.5957 67.203C51.6433 44.4106 64.8388 25.131 79.7516 12.9165C94.7391 0.640337 109.689 -3.04313 121.847 2.5448C131.435 6.95126 138.385 16.7099 141.947 30.7656Z" fill="#F2F2F2"/>
<path d="M185.434 150.801C169.466 176.307 150.095 194.532 130.886 202.117L130.498 201.402C149.573 193.869 168.832 175.738 184.726 150.348L185.434 150.801Z" fill="#F2F2F2"/>
<path d="M210.069 93.6544C209.806 96.5653 209.469 99.5118 209.058 102.494L208.257 102.299C211.33 80.0446 210.24 59.6398 205.103 43.2864L205.875 43.1567C210.355 57.4221 211.779 74.7371 210.069 93.6544Z" fill="#F2F2F2"/>
<path d="M43.2961 71.5443C41.2466 75.8795 39.2972 80.3707 37.502 84.8931C27.1714 110.918 21.9363 137.496 22.3641 161.756L21.5567 161.67C21.1285 137.32 26.3786 110.65 36.7416 84.5437C38.5419 80.0085 40.4969 75.5046 42.5523 71.1572L43.2961 71.5443Z" fill="#F2F2F2"/>
<path d="M95.1113 222.307C81.9279 231.357 68.8202 233.654 58.203 228.775C44.5782 222.513 36.3248 205.272 35.5591 181.473L36.3662 181.549C37.1211 205.017 45.1793 221.98 58.4745 228.091C68.8071 232.84 81.6316 230.557 94.5858 221.664L95.1113 222.307Z" fill="#F2F2F2"/>
<path d="M176.582 69.0601C175.283 83.4228 171.585 98.5674 165.784 113.18C158.611 131.25 148.811 147.167 137.443 159.208L136.812 158.656C148.125 146.672 157.881 130.826 165.024 112.831C171.48 96.5682 175.319 79.6449 176.133 63.8975L176.939 64.033C176.854 65.6961 176.735 67.3718 176.582 69.0601Z" fill="#F2F2F2"/>
<path d="M175.16 49.6401L174.376 49.7263C170.882 35.9388 164.109 26.387 154.788 22.1033C142.94 16.6579 128.289 20.3146 113.535 32.3998C98.705 44.5467 85.5768 63.7336 76.5688 86.4269L75.8083 86.0775C84.8559 63.2851 98.0515 44.0055 112.964 31.791C127.952 19.5148 142.902 15.8314 155.06 21.4193C164.647 25.8258 171.598 35.5844 175.16 49.6401Z" fill="#F2F2F2"/>
<path d="M184.388 174.967C168.42 200.474 149.048 218.699 129.84 226.284L129.451 225.568C148.527 218.036 167.785 199.904 183.68 174.514L184.388 174.967Z" fill="#F2F2F2"/>
<path d="M209.682 111.537C209.419 114.448 209.081 117.394 208.67 120.376L207.869 120.181C210.942 97.9269 209.852 77.5221 204.716 61.1687L205.487 61.0391C209.968 75.3045 211.392 92.6194 209.682 111.537Z" fill="#F2F2F2"/>
<path d="M42.9086 89.4267C40.8591 93.7618 38.9097 98.253 37.1145 102.775C26.784 128.8 21.5489 155.379 21.9767 179.638L21.1693 179.552C20.741 155.202 25.9912 128.532 36.3541 102.426C38.1545 97.8908 40.1094 93.3869 42.1648 89.0396L42.9086 89.4267Z" fill="#F2F2F2"/>
<path d="M197.368 76.8777C198.26 75.5306 197.732 73.6025 196.188 72.5709C194.644 71.5393 192.668 71.7951 191.776 73.1421C190.883 74.4891 191.411 76.4173 192.956 77.4488C194.5 78.4804 196.475 78.2247 197.368 76.8777Z" fill="#FD6584"/>
<path d="M94.7809 94.0491C96.6498 91.1735 99.7012 88.9137 103.099 88.7228C106.498 88.5319 110.582 91.4376 112.259 94.4276C115.327 99.8968 113.996 105.156 109.77 108.96C109.196 108.764 107.193 108.174 106.609 107.985L106.239 107.314L105.783 107.722C100.561 108.245 95.5164 107.662 91.5859 103.756C92.0746 100.356 92.912 96.9247 94.7809 94.0491Z" fill="#2F2E41"/>
<path d="M108.783 132.437L108.165 138.186L108.529 145.725L91.8982 143.741L90.3354 132.437L92.3264 132.457L108.783 132.437Z" fill="#FFB6B6"/>
<path d="M101.954 107.593C105.768 107.593 108.86 104.488 108.86 100.659C108.86 96.8295 105.768 93.7251 101.954 93.7251C98.1404 93.7251 95.0486 96.8295 95.0486 100.659C95.0486 104.488 98.1404 107.593 101.954 107.593Z" fill="#FFB7B7"/>
<path d="M94.3023 113.542L98.254 111.162L106.157 110.368L113.143 113.94L113.073 124.851L108.641 136.168L90.0683 133.787L89.3626 129.795C89.3626 129.795 84.2254 122.867 89.7578 118.899L94.3023 113.542Z" fill="#0038BC"/>
<path d="M99.3724 90.1285C100.869 89.7073 102.45 89.6975 103.952 90.1C105.453 90.5026 106.819 91.3028 107.907 92.417C108.995 93.5311 109.765 94.9183 110.136 96.4335C110.508 97.9487 110.467 99.5362 110.018 101.03C105.812 101.367 101.655 100.973 98.3775 97.9849L98.0859 95.422L96.8901 97.5668C95.6841 97.2261 94.4762 96.8833 93.2664 96.5384C93.6364 95.0268 94.3951 93.6393 95.4666 92.5145C96.5382 91.3896 97.885 90.5669 99.3724 90.1285Z" fill="#2F2E41"/>
<path d="M70.5843 81.1435C70.397 81.5444 70.2996 81.9817 70.2988 82.4245C70.2981 82.8673 70.394 83.3049 70.5799 83.7064C70.7658 84.108 71.0371 84.4637 71.3747 84.7486C71.7124 85.0335 72.1081 85.2406 72.5341 85.3553L85.4003 109.731L90.5935 105.706L76.3135 83.0114C76.4579 82.2801 76.3302 81.521 75.9545 80.878C75.5789 80.235 74.9813 79.7526 74.2751 79.5224C73.5689 79.2922 72.8032 79.33 72.1229 79.6288C71.4427 79.9276 70.8952 80.4666 70.5843 81.1435Z" fill="#FFB6B6"/>
<path d="M91.6896 117.968C91.6896 117.968 90.4973 119.029 88.8018 116.098C87.4444 113.751 80.6749 103.241 79.7164 99.5979C79.1906 99.6128 78.6748 99.4516 78.2502 99.1397C77.8257 98.8279 77.5166 98.3831 77.3716 97.8754L84.6431 95.0415C86.2238 95.8351 85.7851 96.935 85.3843 97.504L88.0924 101.583L97.1004 111.733L92.565 117.216L91.6896 117.968Z" fill="#0038BC"/>
<path d="M214.608 244H0.392224C0.288199 244 0.188431 243.959 0.114874 243.885C0.0413178 243.811 0 243.711 0 243.606C0 243.502 0.0413178 243.402 0.114874 243.328C0.188431 243.254 0.288199 243.212 0.392224 243.212H214.608C214.712 243.212 214.812 243.254 214.885 243.328C214.959 243.402 215 243.502 215 243.606C215 243.711 214.959 243.811 214.885 243.885C214.812 243.959 214.712 244 214.608 244Z" fill="#CCCCCC"/>
<path d="M163.323 24.205C159.457 20.3786 154.294 18.2667 149.116 16.9156C143.255 15.3861 137.194 14.4852 131.207 13.6209C124.967 12.72 118.702 12.0252 112.413 11.5364C106.132 11.0502 99.8392 10.7719 93.5354 10.7014C87.9184 10.6382 82.2637 10.6363 76.674 11.262C71.4091 11.8514 66.157 13.0341 61.4105 15.4621C57.1854 17.5769 53.6358 20.8392 51.1649 24.8783C48.8933 28.6379 47.5427 33.1448 48.0123 37.5641C48.2326 39.7403 48.9074 41.8454 49.9927 43.742C51.265 45.8378 52.8863 47.6987 54.786 49.2435C58.7078 52.5686 63.3969 54.9994 66.7707 58.9514C67.6616 59.9867 68.4399 61.1146 69.0922 62.3158C69.5821 63.2269 70.1331 64.0109 71.0443 64.5424C71.8577 65.0085 72.7903 65.2223 73.7246 65.157C74.6588 65.0916 75.5529 64.7499 76.294 64.175C77.345 63.3468 78.0998 62.07 78.913 61.0192L81.7489 57.3548C81.9539 57.0262 82.1915 56.7193 82.4579 56.4387C82.6491 56.28 82.3337 56.4198 82.3962 56.3802C82.4306 56.3585 82.4911 56.3706 82.5287 56.3551C82.7176 56.3007 82.9112 56.2646 83.1069 56.2472C85.1777 55.8649 87.2529 55.5074 89.3324 55.1746C97.011 53.9305 104.739 52.9043 112.5 52.3513C116.5 52.0305 120.515 51.9344 124.526 52.0632C129.712 52.2763 134.826 53.3103 139.994 53.7564C145.557 54.2367 151.4 54.1703 156.643 52.0164C160.838 50.2924 164.734 47.392 167.006 43.386C168.084 41.4913 168.723 39.377 168.874 37.2003C169.152 32.263 166.761 27.6073 163.323 24.205Z" fill="#E6E6E6"/>
<path d="M90.4434 14.748C89.454 14.748 88.4653 14.7533 87.4771 14.7638C77.9888 14.8649 68.1827 15.6352 60.7413 20.546C54.1363 24.9049 49.5072 34.6143 53.4247 41.5774C55.2237 44.7748 58.483 47.1022 61.9337 49.566C63.2862 50.5319 64.6851 51.5307 66.0255 52.6063C68.9537 54.9558 71.7112 58.1091 73.2976 61.6547L80.2651 52.6516L81.5814 52.3985C82.848 52.1551 112.781 46.456 128.722 48.3062C130.188 48.4764 131.67 48.6723 133.103 48.8616C139.58 49.7172 145.696 50.5248 151.569 49.3322C157.699 48.0866 164.431 43.3325 164.832 36.9751C165.106 32.6228 162.286 27.8481 157.648 24.8112C152.958 21.7406 147.108 20.4728 141.519 19.4373C124.671 16.3202 107.575 14.7506 90.4434 14.748Z" fill="white"/>
<path d="M144.516 28.6011H77.2289C76.8406 28.6011 76.4682 28.4462 76.1937 28.1706C75.9191 27.8949 75.7649 27.521 75.7649 27.1311C75.7649 26.7413 75.9191 26.3674 76.1937 26.0917C76.4682 25.816 76.8406 25.6611 77.2289 25.6611H144.516C144.904 25.6611 145.276 25.816 145.551 26.0917C145.825 26.3674 145.98 26.7413 145.98 27.1311C145.98 27.521 145.825 27.8949 145.551 28.1706C145.276 28.4462 144.904 28.6011 144.516 28.6011Z" fill="#0038BC"/>
<path d="M144.516 37.6241H77.2289C76.8406 37.6241 76.4682 37.4692 76.1937 37.1935C75.9191 36.9178 75.7649 36.5439 75.7649 36.1541C75.7649 35.7642 75.9191 35.3903 76.1937 35.1146C76.4682 34.839 76.8406 34.6841 77.2289 34.6841H144.516C144.904 34.6841 145.276 34.839 145.551 35.1146C145.825 35.3903 145.98 35.7642 145.98 36.1541C145.98 36.5439 145.825 36.9178 145.551 37.1935C145.276 37.4692 144.904 37.6241 144.516 37.6241Z" fill="#0038BC"/>
<path d="M85.0702 46.647H77.2289C76.8406 46.647 76.4682 46.4921 76.1937 46.2165C75.9191 45.9408 75.7649 45.5669 75.7649 45.177C75.7649 44.7872 75.9191 44.4133 76.1937 44.1376C76.4682 43.8619 76.8406 43.707 77.2289 43.707H85.0702C85.4585 43.707 85.8309 43.8619 86.1054 44.1376C86.38 44.4133 86.5342 44.7872 86.5342 45.177C86.5342 45.5669 86.38 45.9408 86.1054 46.2165C85.8309 46.4921 85.4585 46.647 85.0702 46.647Z" fill="#0038BC"/>
<path d="M72.913 81.9066C76.3496 81.9066 79.1355 79.1093 79.1355 75.6586C79.1355 72.2079 76.3496 69.4106 72.913 69.4106C69.4764 69.4106 66.6904 72.2079 66.6904 75.6586C66.6904 79.1093 69.4764 81.9066 72.913 81.9066Z" fill="#E6E6E6"/>
<path d="M54.8081 152.489C55.7007 151.142 55.1724 149.214 53.6282 148.183C52.084 147.151 50.1087 147.407 49.2162 148.754C48.3236 150.101 48.8519 152.029 50.3961 153.061C51.9403 154.092 53.9156 153.836 54.8081 152.489Z" fill="#F2F2F2"/>
<path d="M188.319 152.065C189.212 150.718 188.684 148.789 187.139 147.758C185.595 146.726 183.62 146.982 182.727 148.329C181.835 149.676 182.363 151.604 183.907 152.636C185.452 153.667 187.427 153.412 188.319 152.065Z" fill="#E6E6E6"/>
<path d="M137.919 103.443C138.812 102.096 138.283 100.168 136.739 99.1363C135.195 98.1048 133.22 98.3605 132.327 99.7075C131.434 101.055 131.963 102.983 133.507 104.014C135.051 105.046 137.026 104.79 137.919 103.443Z" fill="#E6E6E6"/>
<path d="M117.409 236.816H113.773L112.042 222.734H117.409V236.816Z" fill="#FFB6B6"/>
<path d="M119.328 243.141H116.72L116.255 240.67L115.063 243.141H108.147C107.815 243.141 107.493 243.035 107.226 242.838C106.959 242.641 106.761 242.363 106.663 242.045C106.564 241.727 106.569 241.386 106.677 241.071C106.785 240.757 106.991 240.485 107.264 240.296L112.786 236.466V233.967L118.595 234.315L119.328 243.141Z" fill="#2F2E41"/>
<path d="M96.9848 236.816H93.3487L91.6187 222.734H96.9848V236.816Z" fill="#FFB6B6"/>
<path d="M98.904 243.141H96.2965L95.8311 240.67L94.639 243.141H87.7234C87.3919 243.141 87.069 243.035 86.802 242.838C86.535 242.641 86.3378 242.363 86.2391 242.045C86.1405 241.727 86.1456 241.386 86.2537 241.071C86.3618 240.757 86.5672 240.485 86.84 240.296L92.3626 236.466V233.967L98.1715 234.315L98.904 243.141Z" fill="#2F2E41"/>
<path d="M118.977 224.673H118.938L118.239 201.777C118.691 200.9 118.921 199.925 118.907 198.938C118.893 197.951 118.637 196.982 118.16 196.119L118.06 195.937L118.32 194.729C118.653 193.176 118.5 191.559 117.882 190.097L117.229 168.739C119.56 153.574 108.453 143.683 108.453 143.683H91.8152L88.2432 156.006C85.8818 179.106 86.3103 201.617 90.0575 223.426L89.9553 223.478C89.5875 223.605 89.4297 224.117 89.6028 224.62C89.776 225.124 90.2146 225.429 90.5824 225.302L99.3692 224.995C99.737 224.867 99.8949 224.356 99.7217 223.852C99.5486 223.348 99.11 223.043 98.7421 223.171L98.1447 223.474L99.4188 201.38L99.2774 197.345L99.5687 192.766L100.916 172.173L106.014 197.497L111.221 224.928C111.077 225.058 110.977 225.229 110.932 225.419C110.887 225.608 110.901 225.807 110.971 225.988C111.041 226.169 111.164 226.325 111.324 226.435C111.484 226.545 111.673 226.603 111.867 226.602H118.977C119.232 226.602 119.477 226.501 119.657 226.32C119.837 226.139 119.938 225.894 119.938 225.638C119.938 225.382 119.837 225.136 119.657 224.955C119.477 224.774 119.232 224.673 118.977 224.673Z" fill="#2F2E41"/>
<path d="M111.218 160.653C111.593 160.42 111.914 160.108 112.156 159.738C112.399 159.368 112.557 158.95 112.621 158.512C112.685 158.073 112.652 157.626 112.525 157.202C112.398 156.778 112.18 156.387 111.887 156.057L114.435 128.588L107.895 129.096L107.446 155.937C106.926 156.469 106.619 157.174 106.582 157.919C106.545 158.663 106.781 159.396 107.246 159.977C107.711 160.558 108.372 160.948 109.104 161.072C109.836 161.197 110.588 161.048 111.218 160.653Z" fill="#FFB6B6"/>
<path d="M112.901 114.049C112.901 114.049 114.478 113.818 114.295 117.203C114.149 119.913 114.844 136.617 113.656 140.192C114.104 140.469 114.447 140.888 114.632 141.382C114.817 141.876 114.833 142.419 114.677 142.923L107.048 141.29C106.159 139.757 106.343 138.182 106.989 137.927L106.951 133.025L105.265 116.867L111.758 114.196L112.901 114.049Z" fill="#0038BC"/>
</g>
<defs>
<clipPath id="clip0_84_2154">
<rect width="215" height="244" fill="white"/>
</clipPath>
</defs>
</svg>
